#FILENAME=9d0bd50c
# xmcd CD database file
# Copyright (C) 1995-1998 Ti Kan
#
# Track frame offsets:
#	182
#	20655
#	38277
#	58340
#	76660
#	94650
#	111852
#	126117
#	140840
#	162632
#	180305
#	206507
#
# Disc length: 3031 seconds
#
# Revision: 34558988
# Submitted via:  TitleTrack v2.0
#
DISCID=9d0bd50c
DTITLE=Various Artists / Grammy's Greatest Moments Volume II
TTITLE0=Billy Joel / We Didn't Start The Fire
TTITLE1=Huey Lewis and The News / Heart of Rock 'n Roll
TTITLE2=Aerosmith / Come Together
TTITLE3=Mariah Carey / Vision Of Love
TTITLE4=The Doobie Brothers / What A Fool Believes
TTITLE5=Vanessa Williams / Save The Best For Last
TTITLE6=Aretha Franklin / Respect
TTITLE7=Michael Bolton / How Am I Supposed To Live Without You
TTITLE8=Terence Trent D'Arby / If You Let Me Stay
TTITLE9=K.D. Lang / Constant Craving
TTITLE10=Whitney Houston / One Moment In Time
TTITLE11=Eric Clapton / Tears In Heaven
EXTD=\nYEAR: 1999  ID3G:  17
EXTT0=
EXTT1=
EXTT2=
EXTT3=
EXTT4=
EXTT5=
EXTT6=
EXTT7=
EXTT8=
EXTT9=
EXTT10=
EXTT11=
PLAYORDER=
